<?xml version="1.0" encoding="UTF-8" standalone="no"?>
<!-- Created with Inkscape (http://www.inkscape.org/) -->

<svg
   xmlns:dc="http://purl.org/dc/elements/1.1/"
   xmlns:cc="http://creativecommons.org/ns#"
   xmlns:rdf="http://www.w3.org/1999/02/22-rdf-syntax-ns#"
   xmlns:svg="http://www.w3.org/2000/svg"
   xmlns="http://www.w3.org/2000/svg"
   xmlns:sodipodi="http://sodipodi.sourceforge.net/DTD/sodipodi-0.dtd"
   xmlns:inkscape="http://www.inkscape.org/namespaces/inkscape"
   width="20"
   height="20"
   viewBox="0 0 5.8208332 5.8208335"
   version="1.1"
   id="svg8"
   inkscape:version="0.92.4 (5da689c313, 2019-01-14)"
   sodipodi:docname="todotxt-indicator.svg">
  <defs
     id="defs2" />
  <sodipodi:namedview
     id="base"
     pagecolor="#ffffff"
     bordercolor="#666666"
     borderopacity="1.0"
     inkscape:pageopacity="0.0"
     inkscape:pageshadow="2"
     inkscape:zoom="26.939394"
     inkscape:cx="-1.5528684"
     inkscape:cy="6.4465692"
     inkscape:document-units="mm"
     inkscape:current-layer="layer1"
     showgrid="false"
     inkscape:window-width="1920"
     inkscape:window-height="1016"
     inkscape:window-x="0"
     inkscape:window-y="27"
     inkscape:window-maximized="1"
     units="px" />
  <metadata
     id="metadata5">
    <rdf:RDF>
      <cc:Work
         rdf:about="">
        <dc:format>image/svg+xml</dc:format>
        <dc:type
           rdf:resource="http://purl.org/dc/dcmitype/StillImage" />
        <dc:title />
      </cc:Work>
    </rdf:RDF>
  </metadata>
  <g
     inkscape:label="Capa 1"
     inkscape:groupmode="layer"
     id="layer1"
     transform="translate(0,-291.17915)">
    <path
       style="opacity:1;fill:#518ff2;fill-opacity:1;fill-rule:nonzero;stroke:none;stroke-width:0;stroke-linecap:round;stroke-miterlimit:4;stroke-dasharray:none;stroke-dashoffset:0;stroke-opacity:1"
       d="m 0.8154848,291.70207 h 3.5500823 c 0.2028823,0 0.3662136,0.16334 0.3662136,0.36622 v 3.84574 c 0,0.20288 -0.1633313,0.36621 -0.3662136,0.36621 H 0.8154848 c -0.20288231,0 -0.36621362,-0.16333 -0.36621362,-0.36621 v -3.84574 c 0,-0.20288 0.16333131,-0.36622 0.36621362,-0.36622 z"
       id="rect4518-3"
       inkscape:connector-curvature="0"
       sodipodi:nodetypes="sssssssss" />
    <path
       style="opacity:1;fill:#ffffff;fill-opacity:1;fill-rule:nonzero;stroke:#518ff2;stroke-width:0.13170061;stroke-linecap:round;stroke-miterlimit:4;stroke-dasharray:none;stroke-dashoffset:0;stroke-opacity:1"
       d="m 2.5834432,291.50958 c -0.1470578,8e-5 -0.2698166,0.11223 -0.2831343,0.25868 H 1.8525486 v 0.41057 c 8.9e-6,0.0491 0.039793,0.0889 0.088872,0.0889 h 1.2981735 1.88e-5 c 0.049086,0 0.088882,-0.0398 0.088891,-0.0889 v -0.41057 H 2.8664857 c -0.013314,-0.14641 -0.1360198,-0.25856 -0.2830425,-0.25868 z"
       id="rect4520-6"
       inkscape:connector-curvature="0"
       sodipodi:nodetypes="ccccccccccc" />
    <path
       inkscape:connector-curvature="0"
       style="opacity:1;fill:#ffffff;fill-opacity:1;fill-rule:nonzero;stroke:#696969;stroke-width:0;stroke-linecap:round;stroke-miterlimit:4;stroke-dasharray:none;stroke-dashoffset:0;stroke-opacity:1"
       d="m 1.0745778,293.19593 a 0.07110943,0.07110943 0 0 0 -0.071105,0.0711 0.07110943,0.07110943 0 0 0 0.071105,0.0711 h 3.1288263 a 0.07110943,0.07110943 0 0 0 0.071105,-0.0711 0.07110943,0.07110943 0 0 0 -0.071105,-0.0711 z"
       id="rect4538-7" />
    <path
       inkscape:connector-curvature="0"
       style="opacity:1;fill:#ffffff;fill-opacity:1;fill-rule:nonzero;stroke:#696969;stroke-width:0;stroke-linecap:round;stroke-miterlimit:4;stroke-dasharray:none;stroke-dashoffset:0;stroke-opacity:1"
       d="m 1.0745778,293.76036 a 0.07110943,0.07110943 0 0 0 -0.071105,0.0711 0.07110943,0.07110943 0 0 0 0.071105,0.0711 h 3.1288263 a 0.07110943,0.07110943 0 0 0 0.071105,-0.0711 0.07110943,0.07110943 0 0 0 -0.071105,-0.0711 z"
       id="path4547-5" />
    <path
       id="path4549-3"
       d="m 1.0745778,294.3248 a 0.07110943,0.07110943 0 0 0 -0.071105,0.0711 0.07110943,0.07110943 0 0 0 0.071105,0.0711 h 3.1288263 a 0.07110943,0.07110943 0 0 0 0.071105,-0.0711 0.07110943,0.07110943 0 0 0 -0.071105,-0.0711 z"
       style="opacity:1;fill:#ffffff;fill-opacity:1;fill-rule:nonzero;stroke:#696969;stroke-width:0;stroke-linecap:round;stroke-miterlimit:4;stroke-dasharray:none;stroke-dashoffset:0;stroke-opacity:1"
       inkscape:connector-curvature="0" />
    <path
       id="path4557-5"
       d="m 1.0745778,294.88923 c -0.039276,0 -0.071113,0.0319 -0.071105,0.0711 2.3e-6,0.0393 0.031836,0.0711 0.071105,0.0711 h 2.3762513 c 0.03927,-10e-6 0.071103,-0.0318 0.071105,-0.0711 7.8e-6,-0.0393 -0.031829,-0.0711 -0.071105,-0.0711 z"
       style="opacity:1;fill:#ffffff;fill-opacity:1;fill-rule:nonzero;stroke:#696969;stroke-width:0;stroke-linecap:round;stroke-miterlimit:4;stroke-dasharray:none;stroke-dashoffset:0;stroke-opacity:1"
       inkscape:connector-curvature="0"
       sodipodi:nodetypes="ccccccc" />
    <path
       inkscape:connector-curvature="0"
       style="opacity:1;fill:#ffffff;fill-opacity:1;fill-rule:nonzero;stroke:#696969;stroke-width:0;stroke-linecap:round;stroke-miterlimit:4;stroke-dasharray:none;stroke-dashoffset:0;stroke-opacity:1"
       d="m 1.0745778,295.45366 c -0.039276,0 -0.071113,0.0318 -0.071105,0.0711 2.3e-6,0.0393 0.031836,0.0711 0.071105,0.0711 h 2.1881078 c 0.039269,0 0.071103,-0.0318 0.071105,-0.0711 7.5e-6,-0.0393 -0.031829,-0.0711 -0.071105,-0.0711 z"
       id="path4559-6"
       sodipodi:nodetypes="ccccccc" />
    <circle
       style="opacity:1;fill:#ffffff;fill-opacity:1;fill-rule:nonzero;stroke:#518ff2;stroke-width:0.13168414;stroke-linecap:round;stroke-miterlimit:4;stroke-dasharray:none;stroke-dashoffset:0;stroke-opacity:1"
       id="path4561-2"
       cx="4.4826941"
       cy="295.84653"
       r="0.82302588" />
    <path
       style="opacity:1;fill:#518ff2;fill-opacity:1;fill-rule:nonzero;stroke:#dcd8d0;stroke-width:0;stroke-linecap:round;stroke-miterlimit:4;stroke-dasharray:none;stroke-dashoffset:0;stroke-opacity:1"
       d="m 4.4350158,295.27362 h 0.095356 v 0.58166 h -0.095356 z"
       id="rect4566-9"
       inkscape:connector-curvature="0"
       sodipodi:nodetypes="ccccc" />
    <path
       style="opacity:1;fill:#518ff2;fill-opacity:1;fill-rule:nonzero;stroke:#dcd8d0;stroke-width:0;stroke-linecap:round;stroke-miterlimit:4;stroke-dasharray:none;stroke-dashoffset:0;stroke-opacity:1"
       d="m 4.8346462,296.12006 -0.067426,0.0674 -0.3322041,-0.33221 0.067426,-0.0674 z"
       id="rect4568-1"
       inkscape:connector-curvature="0"
       sodipodi:nodetypes="ccccc" />
    <path
       id="path5392"
       d="m 1.0745778,292.6315 a 0.07110943,0.07110943 0 0 0 -0.071105,0.0711 0.07110943,0.07110943 0 0 0 0.071105,0.0711 h 3.1288263 a 0.07110943,0.07110943 0 0 0 0.071105,-0.0711 0.07110943,0.07110943 0 0 0 -0.071105,-0.0711 z"
       style="opacity:1;fill:#ffffff;fill-opacity:1;fill-rule:nonzero;stroke:#696969;stroke-width:0;stroke-linecap:round;stroke-miterlimit:4;stroke-dasharray:none;stroke-dashoffset:0;stroke-opacity:1"
       inkscape:connector-curvature="0" />
  </g>
</svg>
