<?xml version="1.0" encoding="UTF-8" standalone="no"?>
<!-- Created with Inkscape (http://www.inkscape.org/) -->

<svg
   xmlns:dc="http://purl.org/dc/elements/1.1/"
   xmlns:cc="http://creativecommons.org/ns#"
   xmlns:rdf="http://www.w3.org/1999/02/22-rdf-syntax-ns#"
   xmlns:svg="http://www.w3.org/2000/svg"
   xmlns="http://www.w3.org/2000/svg"
   xmlns:sodipodi="http://sodipodi.sourceforge.net/DTD/sodipodi-0.dtd"
   xmlns:inkscape="http://www.inkscape.org/namespaces/inkscape"
   width="20"
   height="20"
   viewBox="0 0 5.8208332 5.8208335"
   version="1.1"
   id="svg8"
   inkscape:version="0.92.3 (2405546, 2018-03-11)"
   sodipodi:docname="todotxt-indicator.svg">
  <defs
     id="defs2" />
  <sodipodi:namedview
     id="base"
     pagecolor="#ffffff"
     bordercolor="#666666"
     borderopacity="1.0"
     inkscape:pageopacity="0.0"
     inkscape:pageshadow="2"
     inkscape:zoom="26.939394"
     inkscape:cx="4.708099"
     inkscape:cy="8.2345332"
     inkscape:document-units="mm"
     inkscape:current-layer="layer1"
     showgrid="false"
     inkscape:window-width="1880"
     inkscape:window-height="1055"
     inkscape:window-x="40"
     inkscape:window-y="0"
     inkscape:window-maximized="1"
     units="px" />
  <metadata
     id="metadata5">
    <rdf:RDF>
      <cc:Work
         rdf:about="">
        <dc:format>image/svg+xml</dc:format>
        <dc:type
           rdf:resource="http://purl.org/dc/dcmitype/StillImage" />
        <dc:title></dc:title>
      </cc:Work>
    </rdf:RDF>
  </metadata>
  <g
     inkscape:label="Capa 1"
     inkscape:groupmode="layer"
     id="layer1"
     transform="translate(0,-291.17915)">
    <g
       id="g6795"
       transform="matrix(0.03555472,0,0,0.03555472,-0.49287411,288.64682)">
      <path
         sodipodi:nodetypes="sssssssss"
         inkscape:connector-curvature="0"
         id="rect4518-3"
         d="m 36.798459,85.931066 h 99.848411 c 5.7062,0 10.3,4.593801 10.3,10.300001 V 204.39497 c 0,5.7062 -4.5938,10.3 -10.3,10.3 H 36.798459 c -5.706199,0 -10.3,-4.5938 -10.3,-10.3 V 96.231067 c 0,-5.7062 4.593801,-10.300001 10.3,-10.300001 z"
         style="opacity:1;fill:#dcd8d0;fill-opacity:1;fill-rule:nonzero;stroke:none;stroke-width:0;stroke-linecap:round;stroke-miterlimit:4;stroke-dasharray:none;stroke-dashoffset:0;stroke-opacity:1" />
      <path
         sodipodi:nodetypes="ccccccccccc"
         inkscape:connector-curvature="0"
         id="rect4520-6"
         d="m 86.523459,80.517155 c -4.136099,0.002 -7.588772,3.15645 -7.96334,7.275547 H 65.966564 v 11.547314 c 2.49e-4,1.380384 1.119214,2.499334 2.49959,2.499564 h 36.511986 5.3e-4 c 1.38058,6e-5 2.49986,-1.11897 2.50011,-2.499564 V 87.792702 H 94.484215 C 94.10974,83.674595 90.658568,80.520455 86.523459,80.517155 Z"
         style="opacity:1;fill:#ffffff;fill-opacity:1;fill-rule:nonzero;stroke:#dcd8d0;stroke-width:3.70416665;stroke-linecap:round;stroke-miterlimit:4;stroke-dasharray:none;stroke-dashoffset:0;stroke-opacity:1" />
      <path
         id="rect4538-7"
         d="m 44.08562,127.94682 a 1.9999997,1.9999996 0 0 0 -1.99988,2.0004 1.9999997,1.9999996 0 0 0 1.99988,1.99987 h 88.00031 a 1.9999997,1.9999996 0 0 0 1.99988,-1.99987 1.9999997,1.9999996 0 0 0 -1.99988,-2.0004 z"
         style="opacity:1;fill:#ffffff;fill-opacity:1;fill-rule:nonzero;stroke:#696969;stroke-width:0;stroke-linecap:round;stroke-miterlimit:4;stroke-dasharray:none;stroke-dashoffset:0;stroke-opacity:1"
         inkscape:connector-curvature="0" />
      <path
         id="path4547-5"
         d="m 44.08562,143.82183 a 1.9999997,1.9999996 0 0 0 -1.99988,2.00039 1.9999997,1.9999996 0 0 0 1.99988,1.99988 h 88.00031 a 1.9999997,1.9999996 0 0 0 1.99988,-1.99988 1.9999997,1.9999996 0 0 0 -1.99988,-2.00039 z"
         style="opacity:1;fill:#ffffff;fill-opacity:1;fill-rule:nonzero;stroke:#696969;stroke-width:0;stroke-linecap:round;stroke-miterlimit:4;stroke-dasharray:none;stroke-dashoffset:0;stroke-opacity:1"
         inkscape:connector-curvature="0" />
      <path
         inkscape:connector-curvature="0"
         style="opacity:1;fill:#ffffff;fill-opacity:1;fill-rule:nonzero;stroke:#696969;stroke-width:0;stroke-linecap:round;stroke-miterlimit:4;stroke-dasharray:none;stroke-dashoffset:0;stroke-opacity:1"
         d="m 44.08562,159.69684 a 1.9999997,1.9999996 0 0 0 -1.99988,2.00039 1.9999997,1.9999996 0 0 0 1.99988,1.99988 h 88.00031 a 1.9999997,1.9999996 0 0 0 1.99988,-1.99988 1.9999997,1.9999996 0 0 0 -1.99988,-2.00039 z"
         id="path4549-3" />
      <path
         sodipodi:nodetypes="ccccccc"
         inkscape:connector-curvature="0"
         style="opacity:1;fill:#ffffff;fill-opacity:1;fill-rule:nonzero;stroke:#696969;stroke-width:0;stroke-linecap:round;stroke-miterlimit:4;stroke-dasharray:none;stroke-dashoffset:0;stroke-opacity:1"
         d="m 44.08562,175.57185 c -1.104675,7e-5 -2.000096,0.89572 -1.99988,2.00039 6.6e-5,1.10448 0.895404,1.99981 1.99988,1.99988 h 66.83364 c 1.10448,-7e-5 1.99982,-0.8954 1.99988,-1.99988 2.2e-4,-1.10467 -0.8952,-2.00032 -1.99988,-2.00039 z"
         id="path4557-5" />
      <path
         sodipodi:nodetypes="ccccccc"
         id="path4559-6"
         d="m 44.08562,191.44686 c -1.104675,7e-5 -2.000096,0.89572 -1.99988,2.00039 6.6e-5,1.10448 0.895404,1.9998 1.99988,1.99988 h 61.54198 c 1.10447,-8e-5 1.99981,-0.8954 1.99988,-1.99988 2.1e-4,-1.10467 -0.89521,-2.00032 -1.99988,-2.00039 z"
         style="opacity:1;fill:#ffffff;fill-opacity:1;fill-rule:nonzero;stroke:#696969;stroke-width:0;stroke-linecap:round;stroke-miterlimit:4;stroke-dasharray:none;stroke-dashoffset:0;stroke-opacity:1"
         inkscape:connector-curvature="0" />
      <circle
         r="23.148148"
         cy="202.49667"
         cx="139.94115"
         id="path4561-2"
         style="opacity:1;fill:#ffffff;fill-opacity:1;fill-rule:nonzero;stroke:#dcd8d0;stroke-width:3.70370364;stroke-linecap:round;stroke-miterlimit:4;stroke-dasharray:none;stroke-dashoffset:0;stroke-opacity:1" />
      <path
         sodipodi:nodetypes="ccccc"
         inkscape:connector-curvature="0"
         id="rect4566-9"
         d="m 138.60016,186.38301 h 2.68194 v 16.35978 h -2.68194 z"
         style="opacity:1;fill:#dcd8d0;fill-opacity:1;fill-rule:nonzero;stroke:#dcd8d0;stroke-width:0;stroke-linecap:round;stroke-miterlimit:4;stroke-dasharray:none;stroke-dashoffset:0;stroke-opacity:1" />
      <path
         sodipodi:nodetypes="ccccc"
         inkscape:connector-curvature="0"
         id="rect4568-1"
         d="m 149.84003,210.18983 -1.89641,1.89642 -9.34346,-9.34346 1.89641,-1.89642 z"
         style="opacity:1;fill:#dcd8d0;fill-opacity:1;fill-rule:nonzero;stroke:#dcd8d0;stroke-width:0;stroke-linecap:round;stroke-miterlimit:4;stroke-dasharray:none;stroke-dashoffset:0;stroke-opacity:1" />
      <path
         inkscape:connector-curvature="0"
         style="opacity:1;fill:#ffffff;fill-opacity:1;fill-rule:nonzero;stroke:#696969;stroke-width:0;stroke-linecap:round;stroke-miterlimit:4;stroke-dasharray:none;stroke-dashoffset:0;stroke-opacity:1"
         d="m 44.08562,112.07181 a 1.9999997,1.9999996 0 0 0 -1.99988,2.0004 1.9999997,1.9999996 0 0 0 1.99988,1.99987 h 88.00031 a 1.9999997,1.9999996 0 0 0 1.99988,-1.99987 1.9999997,1.9999996 0 0 0 -1.99988,-2.0004 z"
         id="path5392" />
    </g>
  </g>
</svg>
